<svg width="322" height="322" viewBox="0 0 322 322" fill="none" xmlns="http://www.w3.org/2000/svg">
<g clip-path="url(#clip0_601_113)">
<mask id="mask0_601_113" style="mask-type:luminance" maskUnits="userSpaceOnUse" x="0" y="0" width="322" height="322">
<path d="M321.32 0H0V321.32H321.32V0Z" fill="white"/>
</mask>
<g mask="url(#mask0_601_113)">
<path d="M160.66 321.32C249.39 321.32 321.32 249.39 321.32 160.66C321.32 71.9299 249.39 0 160.66 0C71.9299 0 0 71.9299 0 160.66C0 249.39 71.9299 321.32 160.66 321.32Z" fill="#F26633"/>
<path d="M130.62 85.9502H103.93V124.7H130.62V85.9502Z" fill="white"/>
<path d="M103.93 225.1H130.62V186.32H103.93V225.1Z" fill="white"/>
<path d="M216.35 143.94C230.86 148.06 241.44 161.47 241.44 177.48C241.44 196.84 225.87 212.4 206.82 212.4H174.19V225.11H147.5V186.33H201.83C206.67 186.33 210.6 182.37 210.6 177.49C210.6 172.61 206.67 168.65 201.83 168.65H103.92V142.43H178.25C183.09 142.43 187.02 138.47 187.02 133.59C187.02 128.71 183.09 124.75 178.25 124.75L174.19 124.72H147.5V85.9702H174.19V98.6802H183.24C202.29 98.6802 217.86 114.38 217.86 133.6C217.86 137.26 217.26 140.77 216.35 143.97V143.94Z" fill="white"/>
<path d="M39.4699 161.49C39.4699 229.13 94.2999 283.96 161.94 283.96C184.72 283.96 206.04 277.74 224.31 266.91L240.79 283.96C218.03 298.54 190.97 306.99 161.94 306.99C81.0999 306.99 15.5699 241.46 15.5699 160.61C15.5699 79.7602 81.0999 14.2402 161.94 14.2402C190.14 14.2402 216.47 22.2102 238.8 36.0202L220.7 54.0102C203.26 44.4502 183.23 39.0202 161.94 39.0202C94.2999 39.0202 39.4699 93.8502 39.4699 161.49Z" fill="white"/>
</g>
</g>
<defs>
<clipPath id="clip0_601_113">
<rect width="322" height="322" fill="white"/>
</clipPath>
</defs>
</svg>
